<?xml version="1.0" encoding="utf-8"?>
<!-- Generator: Adobe Illustrator 24.0.0, SVG Export Plug-In . SVG Version: 6.00 Build 0)  -->
<svg version="1.1" id="Layer_1" xmlns="http://www.w3.org/2000/svg" xmlns:xlink="http://www.w3.org/1999/xlink" x="0px" y="0px"
	 viewBox="0 0 256 256" enable-background="new 0 0 256 256" xml:space="preserve">
<g>
</g>
<g>
	<path fill="#72C2E9" d="M228.75,52.893H27.25v-42.5c0-2.761,2.239-5,5-5h191.5c2.761,0,5,2.239,5,5V52.893z"/>
	<circle fill="#EFEFEF" cx="196" cy="29.143" r="12"/>
	<path fill="#EFEFEF" d="M218.75,250.608H37.25c-5.523,0-10-4.477-10-10V52.893h201.5v187.715
		C228.75,246.131,224.273,250.608,218.75,250.608z"/>
	<path fill="#F0C020" d="M193.983,193.445C202.819,180.579,208,165.006,208,148.218c0-44.183-35.817-80-80-80s-80,35.817-80,80
		s35.817,80,80,80c16.788,0,32.36-5.181,45.227-14.017l3.638,3.639c5.732,5.732,15.025,5.732,20.757,0h0
		c5.732-5.732,5.732-15.025,0-20.757L193.983,193.445z"/>
	<path fill="#F8E5B0" d="M128,220.685c-40.109,0-72.467-32.348-72.467-72.467c0-19.387,7.53-37.594,21.202-51.265
		c0.976-0.977,2.56-0.977,3.535,0c0.977,0.976,0.977,2.559,0,3.535c-12.728,12.728-19.737,29.678-19.737,47.73
		c0,37.347,30.112,67.467,67.467,67.467c13.702,0,26.876-4.059,38.1-11.738c1.14-0.78,2.696-0.488,3.475,0.651
		c0.78,1.139,0.488,2.695-0.651,3.475C156.865,216.324,142.714,220.685,128,220.685z M173.492,201.482
		c-0.934-1.017-0.867-2.598,0.149-3.532c0.707-0.649,1.403-1.317,2.089-2.002c0.976-0.977,2.56-0.977,3.535,0
		c0.977,0.976,0.977,2.559,0,3.535c-0.735,0.736-1.483,1.452-2.241,2.148C176.006,202.567,174.425,202.498,173.492,201.482z"/>
	<path fill="#EFEFEF" d="M186.047,136.327c-6.565,4.471-16.118,2.977-20.671-4.482c-5.647,9.306-19.2,9.353-24.918,0
		c-5.682,9.33-19.235,9.33-24.918,0c-5.718,9.353-19.271,9.306-24.918,0c-4.518,7.435-14.094,8.965-20.671,4.482
		c5.506-27.023,29.4-47.353,58.047-47.353S180.541,109.303,186.047,136.327z"/>
	<path fill="#72C2E9" d="M187.247,148.221c0,32.718-26.529,59.235-59.247,59.235s-59.247-26.518-59.247-59.235
		c0-4.082,0.424-8.047,1.2-11.894c6.576,4.482,16.153,2.953,20.671-4.482c5.647,9.306,19.2,9.353,24.918,0
		c5.682,9.33,19.235,9.33,24.918,0c5.718,9.353,19.271,9.306,24.918,0c4.553,7.459,14.106,8.953,20.671,4.482
		C186.824,140.174,187.247,144.139,187.247,148.221z"/>
	<circle fill="#EFEFEF" cx="187.313" cy="207.529" r="5.045"/>
	<rect x="101.535" y="5.393" fill="#F0C020" width="52.93" height="31.5"/>
	<path fill="#FFFFFF" d="M219,243.893H55.949c-1.381,0-2.5-1.119-2.5-2.5s1.119-2.5,2.5-2.5H216.5V65.444c0-1.381,1.119-2.5,2.5-2.5
		s2.5,1.119,2.5,2.5v175.949C221.5,242.774,220.381,243.893,219,243.893z M45.949,243.893H38c-1.381,0-2.5-1.119-2.5-2.5
		s1.119-2.5,2.5-2.5h7.949c1.381,0,2.5,1.119,2.5,2.5S47.33,243.893,45.949,243.893z"/>
	<path d="M54.91,18.85h-4.33c-1.38,0-2.5,1.12-2.5,2.5c0,1.38,1.12,2.5,2.5,2.5h4.33c1.38,0,2.5-1.12,2.5-2.5
		C57.41,19.97,56.29,18.85,54.91,18.85z"/>
	<path d="M74.91,18.85h-4.33c-1.38,0-2.5,1.12-2.5,2.5c0,1.38,1.12,2.5,2.5,2.5h4.33c1.38,0,2.5-1.12,2.5-2.5
		C77.41,19.97,76.29,18.85,74.91,18.85z"/>
	<path d="M54.91,31.18h-4.33c-1.38,0-2.5,1.13-2.5,2.5c0,1.38,1.12,2.5,2.5,2.5h4.33c1.38,0,2.5-1.12,2.5-2.5
		C57.41,32.31,56.29,31.18,54.91,31.18z"/>
	<path d="M74.91,31.18h-4.33c-1.38,0-2.5,1.13-2.5,2.5c0,1.38,1.12,2.5,2.5,2.5h4.33c1.38,0,2.5-1.12,2.5-2.5
		C77.41,32.31,76.29,31.18,74.91,31.18z"/>
	<path d="M128,116.408c4.686,0,8.498-3.812,8.498-8.498s-3.812-8.498-8.498-8.498s-8.498,3.812-8.498,8.498
		S123.314,116.408,128,116.408z M128,104.412c1.929,0,3.498,1.569,3.498,3.498s-1.569,3.498-3.498,3.498s-3.498-1.569-3.498-3.498
		S126.071,104.412,128,104.412z"/>
	<path d="M103.378,128.298c4.686,0,8.498-3.812,8.498-8.498c0-4.686-3.812-8.498-8.498-8.498c-4.686,0-8.498,3.812-8.498,8.498
		C94.88,124.486,98.692,128.298,103.378,128.298z M103.378,116.302c1.929,0,3.498,1.569,3.498,3.498s-1.569,3.498-3.498,3.498
		s-3.498-1.569-3.498-3.498S101.449,116.302,103.378,116.302z"/>
	<path d="M152.622,128.298c4.686,0,8.498-3.812,8.498-8.498c0-4.686-3.812-8.498-8.498-8.498c-4.686,0-8.498,3.812-8.498,8.498
		C144.124,124.486,147.936,128.298,152.622,128.298z M152.622,116.302c1.929,0,3.498,1.569,3.498,3.498s-1.569,3.498-3.498,3.498
		s-3.498-1.569-3.498-3.498S150.693,116.302,152.622,116.302z"/>
	<path d="M189.742,148.216c0-34.25-27.933-61.742-61.742-61.742c-33.809,0-61.742,27.49-61.742,61.742
		c0,33.883,27.596,61.742,61.742,61.742C162.054,209.958,189.742,182.186,189.742,148.216z M170.281,186.005
		c-1.823-0.94-3.351-2.357-4.462-4.177c-0.977-1.599-3.3-1.594-4.271,0.007c-4.408,7.27-15.038,7.32-19.52-0.008
		c-0.976-1.597-3.298-1.589-4.268,0.004c-4.45,7.307-15.079,7.291-19.52,0c-0.973-1.599-3.293-1.599-4.268-0.004
		c-4.493,7.345-15.122,7.26-19.52,0.008c-0.974-1.604-3.3-1.604-4.273-0.003c-1.102,1.812-2.628,3.229-4.456,4.177
		c-5.149-5.754-9.137-12.563-11.61-20.056c3.348-1.111,6.298-3.052,8.622-5.703c7.958,9.025,22.195,9.034,30.168-0.011
		c7.977,9.044,22.218,9.043,30.194,0c7.977,9.048,22.217,9.035,30.173,0.005c2.328,2.648,5.278,4.587,8.621,5.696
		C179.42,173.437,175.432,180.248,170.281,186.005z M175.405,154.737c-0.975-1.6-3.299-1.596-4.271,0.004
		c-5.89,9.696-19.977,9.718-25.902-0.003c-0.973-1.595-3.296-1.598-4.27,0c-5.923,9.719-20.015,9.699-25.926,0
		c-0.973-1.596-3.297-1.597-4.27,0c-5.927,9.726-20.015,9.694-25.902,0.003c-0.975-1.604-3.304-1.601-4.275,0.002
		c-1.844,3.044-4.582,5.242-7.834,6.382c-0.97-4.15-1.499-8.468-1.499-12.909c0-2.707,0.203-5.416,0.585-8.091
		c6.463,2.552,13.957,1.021,18.782-4.157c6.644,7.12,18.163,7.213,24.914-0.009c6.705,7.183,18.222,7.178,24.923,0
		c6.718,7.186,18.233,7.171,24.917,0.006c4.829,5.178,12.305,6.715,18.78,4.159c0.382,2.676,0.585,5.384,0.585,8.091
		c0,4.437-0.528,8.75-1.496,12.896C179.999,159.972,177.26,157.778,175.405,154.737z M128,91.474
		c26.265,0,49.19,18.236,55.202,43.608c-5.414,2.664-12.272,1.061-15.691-4.539c-0.976-1.6-3.3-1.596-4.271,0.005
		c-4.682,7.716-15.914,7.737-20.647-0.007c-0.974-1.593-3.293-1.597-4.269,0.003c-4.713,7.738-15.944,7.722-20.647,0
		c-0.972-1.595-3.29-1.602-4.269-0.003c-4.726,7.732-15.958,7.734-20.647,0.007c-0.974-1.604-3.301-1.602-4.274-0.001
		c-3.39,5.58-10.267,7.204-15.688,4.536C78.81,109.71,101.735,91.474,128,91.474z M89.341,189.697
		c1.086-0.698,2.083-1.522,2.974-2.464c6.368,6.717,17.311,6.813,23.788-0.009c6.422,6.777,17.369,6.781,23.795,0
		c6.466,6.811,17.41,6.739,23.789,0.007c0.893,0.943,1.89,1.767,2.975,2.464c-10.141,9.458-23.733,15.263-38.661,15.263
		C113.073,204.958,99.482,199.155,89.341,189.697z"/>
	<path d="M114.75,19.643h26.5c1.381,0,2.5-1.119,2.5-2.5s-1.119-2.5-2.5-2.5h-26.5c-1.381,0-2.5,1.119-2.5,2.5
		S113.369,19.643,114.75,19.643z"/>
	<path d="M114.75,29.143h26.5c1.381,0,2.5-1.119,2.5-2.5s-1.119-2.5-2.5-2.5h-26.5c-1.381,0-2.5,1.119-2.5,2.5
		S113.369,29.143,114.75,29.143z"/>
	<circle cx="80.39" cy="5.39" r="2.5"/>
	<path d="M231.25,10.39c0-4.13-3.37-7.5-7.5-7.5H90.39c-1.38,0-2.5,1.12-2.5,2.5c0,1.38,1.12,2.5,2.5,2.5h8.65v29
		c0,1.399,1.124,2.5,2.49,2.5h20.44c1.37,0,2.49-1.12,2.49-2.5c0-1.37-1.11-2.49-2.48-2.5h-0.01h-17.93V7.89h47.93v26.5h-10
		c-1.38,0-2.51,1.12-2.51,2.5c0,1.38,1.13,2.5,2.51,2.5h12.49c1.367,0,2.51-1.098,2.51-2.5v-29h66.78c1.38,0.01,2.5,1.13,2.5,2.5v40
		H29.75v-40c0-1.37,1.12-2.49,2.5-2.5h38.14c1.38,0,2.5-1.12,2.5-2.5c0-1.38-1.12-2.5-2.5-2.5H32.25c-4.13,0-7.5,3.37-7.5,7.5
		c0,4.609,0,222.71,0,230.22c0,6.89,5.61,12.5,12.5,12.5h181.5c6.89,0,12.5-5.61,12.5-12.5v-64.15c0-1.38-1.12-2.5-2.5-2.5
		c-1.38,0-2.5,1.12-2.5,2.5v64.15c-0.01,4.12-3.37,7.49-7.5,7.5H37.25c-4.13-0.01-7.49-3.38-7.5-7.5V55.39h196.5v101.07
		c0,1.38,1.12,2.5,2.5,2.5c1.38,0,2.5-1.12,2.5-2.5C231.25,145.523,231.25,15.722,231.25,10.39z"/>
	<circle cx="228.75" cy="166.46" r="2.5"/>
	<path d="M128,65.718c-45.491,0-82.5,37.009-82.5,82.5s37.009,82.5,82.5,82.5c16.046,0,31.527-4.591,44.91-13.298l2.188,2.188
		c6.698,6.698,17.595,6.697,24.292,0c6.698-6.697,6.698-17.595,0-24.292l-2.188-2.188c8.707-13.382,13.298-28.864,13.298-44.91
		C210.5,102.727,173.491,65.718,128,65.718z M192.215,195.212l3.639,3.639c4.759,4.76,4.759,12.462,0,17.222
		c-4.759,4.759-12.462,4.759-17.221,0l-3.639-3.639c-0.851-0.852-2.189-0.975-3.183-0.293
		c-12.934,8.883-28.084,13.578-43.812,13.578c-42.734,0-77.5-34.766-77.5-77.5s34.766-77.5,77.5-77.5s77.5,34.766,77.5,77.5
		c0,15.728-4.695,30.877-13.578,43.812C191.241,193.022,191.364,194.361,192.215,195.212z"/>
	<path d="M181.978,212.864c2.942,2.942,7.728,2.942,10.67,0s2.942-7.729,0-10.67c-2.942-2.942-7.729-2.942-10.671,0
		S179.036,209.922,181.978,212.864z M189.113,205.729c0.992,0.992,0.992,2.607,0,3.599c-0.992,0.992-2.607,0.993-3.599,0
		c-0.992-0.992-0.992-2.607,0-3.6C186.506,204.737,188.121,204.737,189.113,205.729z"/>
	<path d="M131.97,39.39c1.37,0,2.49-1.12,2.49-2.5c0-1.38-1.12-2.5-2.49-2.5c-1.38,0-2.51,1.12-2.51,2.5
		C129.46,38.27,130.59,39.39,131.97,39.39z"/>
	<path d="M210.5,29.14c0-7.99-6.51-14.49-14.5-14.5c-7.99,0.01-14.5,6.51-14.5,14.5c0,8,6.51,14.5,14.5,14.5
		C203.99,43.64,210.5,37.14,210.5,29.14z M186.5,29.14c0.008-4.364,2.979-8.042,7-9.15v5.571c0,1.38,1.12,2.5,2.5,2.5
		c1.38,0,2.5-1.12,2.5-2.5V19.99c4.021,1.108,6.991,4.786,7,9.15c-0.01,5.23-4.27,9.49-9.5,9.5
		C190.77,38.63,186.51,34.37,186.5,29.14z"/>
</g>
</svg>
